<?xml version="1.0" encoding="utf-8"?>
<!DOCTYPE svg
  PUBLIC '-//W3C//DTD SVG 1.0//EN'
  'http://www.w3.org/TR/2001/REC-SVG-20010904/DTD/svg10.dtd'>
<svg width="279.675mm" height="156.098mm" preserveAspectRatio="xMinYMin meet" viewBox="0 0 792.778951 442.481275" xmlns="http://www.w3.org/2000/svg" version="1.0" fill-rule="evenodd" xmlns:xlink="http://www.w3.org/1999/xlink">
<title>Orbit Coffee Night Bloom approved artwork vector master</title>
<desc>Path-based front and back print master. Wording: ORBIT COFFEE, NIGHT BLOOM, 250 g, ORIGIN, ROAST, NOTES, FRONT, BACK. No embedded raster. Approved source SHA-256: 4c1e4d5aa41ea0cc4d5cac3f33f9ef3d51a4ed47b6cdb086ede6d5bd01dd9f1f.</desc>
	<clipPath id="clip">
		<rect x="0" y="0" width="792.7789514115614" height="442.48127520645284"/>
	</clipPath>
	<g id="group" transform="scale(1,-1) translate(0,-442)" style="clip-path: url(#clip)">
		<g transform="">
			<g transform=" matrix(0.576147,0,0,-0.576147,0,442.481275)">
				<rect x="0" y="0" width="1376.0" height="768.0" style="stroke: none; stroke-linecap: butt; stroke-width: 1; fill: rgb(96%,97%,93%); fill-rule: evenodd;"/>
				<rect x="123" y="127" width="492" height="501" style="stroke: none; stroke-linecap: butt; stroke-width: 1; fill: rgb(30%,5%,15%); fill-rule: evenodd;"/>
				<rect x="760" y="127" width="493" height="501" style="stroke: none; stroke-linecap: butt; stroke-width: 1; fill: rgb(30%,5%,15%); fill-rule: evenodd;"/>
				<path d="M 123 310 L 269 310 C 269 256.5 311.5 213 364 213 C 416.5 213 459 256.5 459 310 L 615 310 L 615 580 L 123 580 Z " style="stroke: none; stroke-linecap: butt; stroke-width: 1; fill: rgb(95%,94%,86%); fill-rule: evenodd;"/>
				<path d="M 805 233 L 946 233 C 946 198 974 170 1009 170 C 1044 170 1072 198 1072 233 L 1216 233 L 1216 580 L 805 580 Z " style="stroke: none; stroke-linecap: butt; stroke-width: 1; fill: rgb(95%,94%,86%); fill-rule: evenodd;"/>
				<path d="M 412 309 C 412 354.287349 390.509668 391 364 391 C 337.490332 391 316 354.287349 316 309 C 316 263.712651 337.490332 227 364 227 C 390.509668 227 412 263.712651 412 309 " style="stroke: rgb(79%,43%,29%); stroke-linecap: round; stroke-width: 7.4; fill: none; fill-rule: evenodd;"/>
				<path d="M 447 309 C 447 336.614237 409.839634 359 364 359 C 318.160366 359 281 336.614237 281 309 C 281 281.385763 318.160366 259 364 259 C 409.839634 259 447 281.385763 447 309 " style="stroke: rgb(79%,43%,29%); stroke-linecap: round; stroke-width: 7.4; fill: none; fill-rule: evenodd;"/>
				<path d="M 392.772616 277.044773 C 430.121523 310.67388 447.516856 352.2425 431.626179 369.890885 C 415.735502 387.53927 372.576291 374.584335 335.227384 340.955227 C 297.878477 307.32612 280.483144 265.7575 296.373821 248.109115 C 312.264498 230.46073 355.423709 243.415665 392.772616 277.044773 " style="stroke: rgb(77%,36%,28%); stroke-linecap: round; stroke-width: 7.4; fill: none; fill-rule: evenodd;"/>
				<path d="M 392.772616 340.955227 C 355.423709 374.584335 312.264498 387.53927 296.373821 369.890885 C 280.483144 352.2425 297.878477 310.67388 335.227384 277.044773 C 372.576291 243.415665 415.735502 230.46073 431.626179 248.109115 C 447.516856 265.7575 430.121523 307.32612 392.772616 340.955227 " style="stroke: rgb(85%,73%,57%); stroke-linecap: round; stroke-width: 7.4; fill: none; fill-rule: evenodd;"/>
				<path d="M 409.252224 281.654058 C 412.915925 299.347501 412.915925 318.652499 409.252224 336.345942 " style="stroke: rgb(79%,43%,29%); stroke-linecap: round; stroke-width: 7.4; fill: none; fill-rule: evenodd;"/>
				<path d="M 318.747776 336.345942 C 315.084075 318.652499 315.084075 299.347501 318.747776 281.654058 " style="stroke: rgb(79%,43%,29%); stroke-linecap: round; stroke-width: 7.4; fill: none; fill-rule: evenodd;"/>
				<path d="M 284.707071 323.77601 C 279.76431 314.150344 279.76431 303.849656 284.707071 294.22399 " style="stroke: rgb(79%,43%,29%); stroke-linecap: round; stroke-width: 7.4; fill: none; fill-rule: evenodd;"/>
				<path d="M 362.696676 254.99314 C 383.579251 267.09074 403.633087 285.147296 417.847239 304.65093 " style="stroke: rgb(77%,36%,28%); stroke-linecap: round; stroke-width: 7.4; fill: none; fill-rule: evenodd;"/>
				<path d="M 311.163791 303.279314 C 324.970575 284.757517 343.970005 267.650352 363.83354 255.855259 " style="stroke: rgb(85%,73%,57%); stroke-linecap: round; stroke-width: 7.4; fill: none; fill-rule: evenodd;"/>
				<path d="M 1039.72 233 C 1039.72 261.983904 1025.966188 285.48 1009 285.48 C 992.033812 285.48 978.28 261.983904 978.28 233 C 978.28 204.016096 992.033812 180.52 1009 180.52 C 1025.966188 180.52 1039.72 204.016096 1039.72 233 " style="stroke: rgb(79%,43%,29%); stroke-linecap: round; stroke-width: 4.736000000000001; fill: none; fill-rule: evenodd;"/>
				<path d="M 1062.12 233 C 1062.12 250.673112 1038.337366 265 1009 265 C 979.662634 265 955.88 250.673112 955.88 233 C 955.88 215.326888 979.662634 201 1009 201 C 1038.337366 201 1062.12 215.326888 1062.12 233 " style="stroke: rgb(79%,43%,29%); stroke-linecap: round; stroke-width: 4.736000000000001; fill: none; fill-rule: evenodd;"/>
				<path d="M 1027.414474 212.548654 C 1051.317775 234.071283 1062.450788 260.6752 1052.280755 271.970167 C 1042.110721 283.265133 1014.488826 274.973974 990.585526 253.451346 C 966.682225 231.928717 955.549212 205.3248 965.719245 194.029833 C 975.889279 182.734867 1003.511174 191.026026 1027.414474 212.548654 " style="stroke: rgb(77%,36%,28%); stroke-linecap: round; stroke-width: 4.736000000000001; fill: none; fill-rule: evenodd;"/>
				<path d="M 1027.414474 253.451346 C 1003.511174 274.973974 975.889279 283.265133 965.719245 271.970167 C 955.549212 260.6752 966.682225 234.071283 990.585526 212.548654 C 1014.488826 191.026026 1042.110721 182.734867 1052.280755 194.029833 C 1062.450788 205.3248 1051.317775 231.928717 1027.414474 253.451346 " style="stroke: rgb(85%,73%,57%); stroke-linecap: round; stroke-width: 4.736000000000001; fill: none; fill-rule: evenodd;"/>
				<path d="M 1037.961423 215.498597 C 1040.306192 226.822401 1040.306192 239.177599 1037.961423 250.501403 " style="stroke: rgb(79%,43%,29%); stroke-linecap: round; stroke-width: 4.736000000000001; fill: none; fill-rule: evenodd;"/>
				<path d="M 980.038577 250.501403 C 977.693808 239.177599 977.693808 226.822401 980.038577 215.498597 " style="stroke: rgb(79%,43%,29%); stroke-linecap: round; stroke-width: 4.736000000000001; fill: none; fill-rule: evenodd;"/>
				<path d="M 958.252526 242.456647 C 955.089158 236.29622 955.089158 229.70378 958.252526 223.543353 " style="stroke: rgb(79%,43%,29%); stroke-linecap: round; stroke-width: 4.736000000000001; fill: none; fill-rule: evenodd;"/>
				<path d="M 1008.165873 198.43561 C 1021.53072 206.178074 1034.365176 217.73427 1043.462233 230.216595 " style="stroke: rgb(77%,36%,28%); stroke-linecap: round; stroke-width: 4.736000000000001; fill: none; fill-rule: evenodd;"/>
				<path d="M 975.184826 229.338761 C 984.021168 217.484811 996.180803 206.536226 1008.893466 198.987366 " style="stroke: rgb(85%,73%,57%); stroke-linecap: round; stroke-width: 4.736000000000001; fill: none; fill-rule: evenodd;"/>
				<path d="M 184 434 C 184.25 431.25 185.875 429.375 187 428 C 188.125 426.625 190.375 423.75 193 423 C 195.625 422.25 205.625 421.875 208 422 C 210.375 422.125 210.5 422.375 212 424 C 213.5 425.625 219 432.125 220 435 C 221 437.875 220.375 444.625 220 447 C 219.625 449.375 218.375 452.375 217 454 C 215.625 455.625 211.125 459.125 209 460 C 206.875 460.875 202 461.125 200 461 C 198 460.875 194.875 460.375 193 459 C 191.125 457.625 186.125 453.125 185 450 C 183.875 446.875 183.75 436.75 184 434 Z M 194 429 C 193.75 430.5 193.625 435.5 194 438 C 194.375 440.5 196.125 446.875 197 449 C 197.875 451.125 199.75 454.125 201 455 C 202.25 455.875 205.875 456.375 207 456 C 208.125 455.625 210 454.75 210 452 C 210 449.25 208.125 437.25 207 434 C 205.875 430.75 202.375 427 201 426 C 199.625 425 196.875 425.625 196 426 C 195.125 426.375 194.25 427.5 194 429 Z M 223 422 C 225.375 421.125 240.625 421.75 244 422 C 247.375 422.25 248.75 423.25 250 424 C 251.25 424.75 253.625 426.25 254 428 C 254.375 429.75 254.125 436.125 253 438 C 251.875 439.875 245.25 442 245 443 C 244.75 444 249.5 443.875 251 446 C 252.5 448.125 257.875 458.25 257 460 C 256.125 461.75 245.875 461.375 244 460 C 242.125 458.625 242.875 451 242 449 C 241.125 447 237.875 444.625 237 444 C 236.125 443.375 235.25 442.625 235 444 C 234.75 445.375 234.75 453.5 235 455 C 235.25 456.5 236.75 455.5 237 456 C 237.25 456.5 238.75 458.5 237 459 C 235.25 459.5 224.5 460.75 223 460 C 221.5 459.25 224.75 456.875 225 453 C 225.25 449.125 225.25 432.875 225 429 C 224.75 425.125 220.625 422.875 223 422 Z M 235 427 C 234.375 428.75 234.25 438.375 235 440 C 235.75 441.625 239.875 440.5 241 440 C 242.125 439.5 243.75 437.375 244 436 C 244.25 434.625 243.5 430.25 243 429 C 242.5 427.75 241 426.25 240 426 C 239 425.75 235.625 425.25 235 427 Z M 259 422 C 261.625 421.5 276.375 421.5 280 422 C 283.625 422.5 286.875 424.5 288 426 C 289.125 427.5 289.5 432.25 289 434 C 288.5 435.75 284.125 439.125 284 440 C 283.875 440.875 287 440 288 441 C 289 442 291.875 446 292 448 C 292.125 450 290.25 455.5 289 457 C 287.75 458.5 285.75 459.625 282 460 C 278.25 460.375 261.625 460.875 259 460 C 256.375 459.125 260.75 457 261 453 C 261.25 449 261.25 431.375 261 428 C 260.75 424.625 259.25 426.75 259 426 C 258.75 425.25 256.375 422.5 259 422 Z M 271 427 C 270.125 428.375 270.125 436.75 271 438 C 271.875 439.25 276.875 437.625 278 437 C 279.125 436.375 280 434.25 280 433 C 280 431.75 279.125 427.75 278 427 C 276.875 426.25 271.875 425.625 271 427 Z M 271 442 C 270.25 443.5 270.75 452.25 271 454 C 271.25 455.75 272 455.875 273 456 C 274 456.125 278 455.5 279 455 C 280 454.5 280.875 453.375 281 452 C 281.125 450.625 280.5 445.25 280 444 C 279.5 442.75 278.125 442.25 277 442 C 275.875 441.75 271.75 440.5 271 442 Z M 294 422 C 295.5 421.25 306.5 422.25 308 423 C 309.5 423.75 306.25 424.125 306 428 C 305.75 431.875 305.75 450.5 306 454 C 306.25 457.5 307.75 455.25 308 456 C 308.25 456.75 309.75 459.5 308 460 C 306.25 460.5 295.75 460.5 294 460 C 292.25 459.5 293.75 456.75 294 456 C 294.25 455.25 295.75 457.375 296 454 C 296.25 450.625 296.25 433 296 429 C 295.75 425 292.5 422.75 294 422 Z M 310 426 C 310.125 424.625 307 422.375 311 422 C 315 421.625 338 421.625 342 423 C 346 424.375 343.375 431.75 343 433 C 342.625 434.25 339.75 433.625 339 433 C 338.25 432.375 337.875 428.875 337 428 C 336.125 427.125 332.5 422 332 426 C 331.5 430 334.625 455.875 333 460 C 331.375 464.125 320.5 459.625 319 459 C 317.5 458.375 320.75 459.125 321 455 C 321.25 450.875 321.5 429.5 321 426 C 320.5 422.5 318 426.125 317 427 C 316 427.875 313.875 432.25 313 433 C 312.125 433.75 310.375 433.875 310 433 C 309.625 432.125 309.875 427.375 310 426 Z M 356 436 C 356.5 433.125 359.5 427.75 361 426 C 362.5 424.25 365.625 422.5 368 422 C 370.375 421.5 377.875 421.75 380 422 C 382.125 422.25 384 423.25 385 424 C 386 424.75 387.625 426.875 388 428 C 388.375 429.125 388.25 432.125 388 433 C 387.75 433.875 387 434.75 386 435 C 385 435.25 381.125 435.875 380 435 C 378.875 434.125 378.125 429.25 377 428 C 375.875 426.75 372.25 424.875 371 425 C 369.75 425.125 367.625 427.5 367 429 C 366.375 430.5 366 435.25 366 437 C 366 438.75 366.125 441.25 367 443 C 367.875 444.75 371.25 449.875 373 451 C 374.75 452.125 379.125 452.375 381 452 C 382.875 451.625 387.25 447.625 388 448 C 388.75 448.375 388 453.5 387 455 C 386 456.5 382.375 459.375 380 460 C 377.625 460.625 370 460.25 368 460 C 366 459.75 365.375 459.375 364 458 C 362.625 456.625 358 451.75 357 449 C 356 446.25 355.5 438.875 356 436 Z M 390 436 C 390.25 433.375 391.875 429.625 393 428 C 394.125 426.375 396 423.625 399 423 C 402 422.375 414 422.375 417 423 C 420 423.625 421.875 426.625 423 428 C 424.125 429.375 425.5 432 426 434 C 426.5 436 427.125 441.875 427 444 C 426.875 446.125 426.5 449 425 451 C 423.5 453 417.25 458.75 415 460 C 412.75 461.25 409 461.125 407 461 C 405 460.875 400.5 459.625 399 459 C 397.5 458.375 396 457.25 395 456 C 394 454.75 391.625 451.5 391 449 C 390.375 446.5 389.75 438.625 390 436 Z M 400 430 C 399.875 432 400.25 439 401 442 C 401.75 445 405.125 452.25 406 454 C 406.875 455.75 407 455.75 408 456 C 409 456.25 413 456.375 414 456 C 415 455.625 415.75 454.625 416 453 C 416.25 451.375 416.5 445.75 416 443 C 415.5 440.25 413.125 433.125 412 431 C 410.875 428.875 408.25 426.625 407 426 C 405.75 425.375 402.875 425.5 402 426 C 401.125 426.5 400.125 428 400 430 Z M 429 423 C 432 422.25 451.625 420.875 455 422 C 458.375 423.125 456.375 430.75 456 432 C 455.625 433.25 452.5 432.25 452 432 C 451.5 431.75 452.625 430.75 452 430 C 451.375 429.25 448.375 426.375 447 426 C 445.625 425.625 441.75 425.375 441 427 C 440.25 428.625 440.625 437.375 441 439 C 441.375 440.625 443.125 440 444 440 C 444.875 440 447.375 439.375 448 439 C 448.625 438.625 448.5 437.125 449 437 C 449.5 436.875 451.75 436.75 452 438 C 452.25 439.25 451.625 446.25 451 447 C 450.375 447.75 448.25 444.375 447 444 C 445.75 443.625 441.75 442.875 441 444 C 440.25 445.125 440.625 451.25 441 453 C 441.375 454.75 443.75 457.125 444 458 C 444.25 458.875 444.875 459.875 443 460 C 441.125 460.125 430.5 459.75 429 459 C 427.5 458.25 430.75 457.875 431 454 C 431.25 450.125 431.25 431.875 431 428 C 430.75 424.125 426 423.75 429 423 Z M 458 423 C 461 422.25 480.75 421.875 484 423 C 487.25 424.125 484.375 430.875 484 432 C 483.625 433.125 481.375 432.25 481 432 C 480.625 431.75 481.625 430.75 481 430 C 480.375 429.25 477.375 426.375 476 426 C 474.625 425.625 470.75 425.25 470 427 C 469.25 428.75 469.375 438.375 470 440 C 470.625 441.625 474.125 440.375 475 440 C 475.875 439.625 476.375 437.375 477 437 C 477.625 436.625 479.625 435.75 480 437 C 480.375 438.25 480.625 446.125 480 447 C 479.375 447.875 476.25 444.375 475 444 C 473.75 443.625 470.625 442.75 470 444 C 469.375 445.25 469.75 452.5 470 454 C 470.25 455.5 471.75 455.25 472 456 C 472.25 456.75 473.75 459.5 472 460 C 470.25 460.5 459.75 460.5 458 460 C 456.25 459.5 457.75 456.75 458 456 C 458.25 455.25 459.75 457.375 460 454 C 460.25 450.625 460.25 432.875 460 429 C 459.75 425.125 455 423.75 458 423 Z M 487 422 C 489.875 418.625 508.75 420.75 512 422 C 515.25 423.25 513.25 430.75 513 432 C 512.75 433.25 511 432.75 510 432 C 509 431.25 506.375 426.75 505 426 C 503.625 425.25 499.75 424.375 499 426 C 498.25 427.625 498.5 437.375 499 439 C 499.5 440.625 502.125 439.375 503 439 C 503.875 438.625 505.25 436.25 506 436 C 506.75 435.75 508.75 435.75 509 437 C 509.25 438.25 509.25 445.375 508 446 C 506.75 446.625 500.125 440.875 499 442 C 497.875 443.125 498.125 453.25 499 455 C 499.875 456.75 504.625 456.625 506 456 C 507.375 455.375 509 450.875 510 450 C 511 449.125 513.625 447.75 514 449 C 514.375 450.25 516.375 458.625 513 460 C 509.625 461.375 490 461.375 487 460 C 484 458.625 489 453.75 489 449 C 489 444.25 484.125 425.375 487 422 Z M 517 422 C 520 420.75 539.75 421.75 543 423 C 546.25 424.25 543.375 430.875 543 432 C 542.625 433.125 541 432.75 540 432 C 539 431.25 536.375 426.625 535 426 C 533.625 425.375 529.75 425.375 529 427 C 528.25 428.625 528.5 437.5 529 439 C 529.5 440.5 532.125 439.375 533 439 C 533.875 438.625 535.25 436.25 536 436 C 536.75 435.75 538.625 435.875 539 437 C 539.375 438.125 540.25 444.375 539 445 C 537.75 445.625 530.25 440.75 529 442 C 527.75 443.25 528.125 453.25 529 455 C 529.875 456.75 534.5 456.75 536 456 C 537.5 455.25 540 449.875 541 449 C 542 448.125 543.75 447.625 544 449 C 544.25 450.375 546.375 458.625 543 460 C 539.625 461.375 520 460.875 517 460 C 514 459.125 518.75 456.375 519 453 C 519.25 449.625 519.25 436.875 519 433 C 518.75 429.125 514 423.25 517 422 Z " style="stroke: none; stroke-linecap: butt; stroke-width: 1; fill: rgb(29%,2%,12%); fill-rule: evenodd;"/>
				<path d="M 259.867676 488.737305 C 259.55778 488.770508 259.115072 488.83138 258.539551 488.919922 C 257.96403 489.008463 257.443847 489.224284 256.979004 489.567383 C 256.569499 489.866211 256.278971 490.378092 256.107422 491.103027 C 255.935873 491.827962 255.850098 492.893229 255.850098 494.298828 L 255.850098 511.132812 L 252.895019 511.132812 L 238.219238 492.920898 L 238.219238 503.977539 C 238.219238 505.349935 238.310547 506.393067 238.493164 507.106934 C 238.675781 507.820801 238.971843 508.34375 239.381348 508.675781 C 239.680176 508.919271 240.156087 509.135091 240.809082 509.323242 C 241.462077 509.511393 241.982259 509.638672 242.369629 509.705078 L 242.369629 511 L 232.242676 511 L 232.242676 509.705078 C 232.674317 509.671875 233.169597 509.591634 233.728516 509.464355 C 234.287435 509.337077 234.755045 509.140625 235.131348 508.875 C 235.562989 508.554037 235.85905 508.069824 236.019531 507.422363 C 236.180013 506.774902 236.260254 505.6875 236.260254 504.160156 L 236.260254 493.003906 C 236.260254 492.450521 236.174479 491.927572 236.00293 491.435059 C 235.83138 490.942546 235.562988 490.519206 235.197754 490.165039 C 234.810384 489.788737 234.364909 489.492676 233.861328 489.276855 C 233.357747 489.061035 232.784993 488.892253 232.143066 488.770508 L 232.143066 487.442383 L 241.008301 487.442383 L 253.891113 503.379883 L 253.891113 494.464844 C 253.891113 493.048177 253.797038 491.993978 253.608887 491.302246 C 253.420736 490.610514 253.121907 490.098633 252.712402 489.766602 C 252.391439 489.512045 251.915527 489.293457 251.284668 489.11084 C 250.653809 488.928223 250.144694 488.803711 249.757324 488.737305 L 249.757324 487.442383 L 259.867676 487.442383 Z M 273.411035 511 L 260.345605 511 L 260.345605 509.705078 C 260.644434 509.682943 261.084375 509.64974 261.66543 509.605469 C 262.246485 509.561198 262.647689 509.494791 262.869043 509.40625 C 263.278548 509.240235 263.558008 509.021647 263.707422 508.750488 C 263.856836 508.479329 263.931543 508.133464 263.931543 507.712891 L 263.931543 491.011719 C 263.931543 490.635417 263.859603 490.303386 263.715723 490.015625 C 263.571842 489.727864 263.289616 489.495442 262.869043 489.318359 C 262.603418 489.207682 262.210514 489.094238 261.690332 488.978027 C 261.17015 488.861816 260.721908 488.781576 260.345605 488.737305 L 260.345605 487.442383 L 273.411035 487.442383 L 273.411035 488.737305 C 273.079004 488.770508 272.663965 488.817545 272.165918 488.878418 C 271.667871 488.939291 271.247298 489.025065 270.904199 489.135742 C 270.472558 489.279622 270.184798 489.503743 270.040918 489.808105 C 269.897038 490.112467 269.825098 490.458333 269.825098 490.845703 L 269.825098 507.530273 C 269.825098 507.928711 269.899805 508.269043 270.049219 508.55127 C 270.198633 508.833496 270.483626 509.063151 270.904199 509.240234 C 271.136621 509.339843 271.521224 509.436686 272.058008 509.530762 C 272.594792 509.624837 273.045801 509.682943 273.411035 509.705078 Z M 300.93291 501.420898 C 300.589811 501.454101 300.285449 501.492838 300.019824 501.537109 C 299.754199 501.58138 299.422168 501.669922 299.02373 501.802734 C 298.569954 501.946615 298.271126 502.184571 298.127246 502.516602 C 297.983366 502.848633 297.911426 503.197265 297.911426 503.5625 L 297.911426 506.301758 C 297.911426 506.855143 297.91696 507.300619 297.928027 507.638184 C 297.939095 507.975749 297.955697 508.393555 297.977832 508.891602 C 296.871061 509.555664 295.235807 510.180989 293.07207 510.767578 C 290.908333 511.354167 288.918913 511.647461 287.103809 511.647461 C 285.399382 511.647461 283.800098 511.38737 282.305957 510.867188 C 280.811816 510.347005 279.500293 509.566732 278.371387 508.526367 C 277.24248 507.49707 276.354297 506.21875 275.706836 504.691406 C 275.059375 503.164063 274.735644 501.415365 274.735644 499.445312 C 274.735644 497.608073 275.040006 495.90918 275.64873 494.348633 C 276.257454 492.788086 277.137337 491.443359 278.288379 490.314453 C 279.417285 489.196614 280.792448 488.333333 282.413867 487.724609 C 284.035286 487.115885 285.831022 486.811523 287.801074 486.811523 C 289.140267 486.811523 290.37985 486.974772 291.519824 487.30127 C 292.659798 487.627767 293.600553 487.979167 294.34209 488.355469 L 295.371387 487.442383 L 296.815723 487.442383 L 296.965137 496.041992 L 295.504199 496.041992 C 294.663053 493.463216 293.655892 491.548503 292.482715 490.297852 C 291.309538 489.047201 289.826465 488.421875 288.033496 488.421875 C 285.908496 488.421875 284.267708 489.351563 283.111133 491.210938 C 281.954557 493.070313 281.376269 495.632487 281.376269 498.897461 C 281.376269 502.361654 281.943489 505.073242 283.07793 507.032227 C 284.21237 508.991211 285.819955 509.970703 287.900684 509.970703 C 288.874642 509.970703 289.74069 509.824056 290.498828 509.530762 C 291.256966 509.237467 291.846321 508.897135 292.266894 508.509766 L 292.266894 503.728516 C 292.266894 503.330078 292.194954 502.99528 292.051074 502.724121 C 291.907194 502.452962 291.619434 502.217774 291.187793 502.018555 C 290.855762 501.863607 290.440723 501.736328 289.942676 501.636719 C 289.444629 501.53711 289.02959 501.465169 288.697559 501.420898 L 288.697559 500.125977 L 300.93291 500.125977 Z M 329.99873 511 L 317.265332 511 L 317.265332 509.705078 C 317.542025 509.682943 317.945996 509.64974 318.477246 509.605469 C 319.008496 509.561198 319.37373 509.494791 319.572949 509.40625 C 319.982454 509.240235 320.264681 509.021647 320.419629 508.750488 C 320.574577 508.479329 320.652051 508.133464 320.652051 507.712891 L 320.652051 499.594727 L 310.591504 499.594727 L 310.591504 507.530273 C 310.591504 507.906576 310.671745 508.244141 310.832226 508.542969 C 310.992708 508.841797 311.266634 509.074219 311.654004 509.240234 C 311.86429 509.328776 312.22399 509.422852 312.733105 509.522461 C 313.24222 509.62207 313.657259 509.682943 313.978223 509.705078 L 313.978223 511 L 301.244824 511 L 301.244824 509.705078 C 301.521517 509.694011 301.928255 509.658041 302.465039 509.597168 C 303.001823 509.536295 303.39196 509.461588 303.635449 509.373047 C 304.033886 509.229167 304.310579 509.01058 304.465527 508.717285 C 304.620475 508.423991 304.697949 508.078125 304.697949 507.679688 L 304.697949 491.011719 C 304.697949 490.624349 304.628776 490.297852 304.49043 490.032227 C 304.352083 489.766602 304.06709 489.53418 303.635449 489.334961 C 303.314486 489.191081 302.893913 489.061035 302.37373 488.944824 C 301.853548 488.828613 301.477246 488.75944 301.244824 488.737305 L 301.244824 487.442383 L 313.978223 487.442383 L 313.978223 488.737305 C 313.635124 488.75944 313.225618 488.814779 312.749707 488.90332 C 312.273796 488.991862 311.908561 489.07487 311.654004 489.152344 C 311.222363 489.296224 310.93737 489.525879 310.799023 489.841309 C 310.660677 490.156738 310.591504 490.491536 310.591504 490.845703 L 310.591504 497.884766 L 320.652051 497.884766 L 320.652051 491.011719 C 320.652051 490.624349 320.580111 490.297852 320.43623 490.032227 C 320.29235 489.766602 320.00459 489.53418 319.572949 489.334961 C 319.285188 489.202148 318.900586 489.077637 318.419141 488.961426 C 317.937696 488.845215 317.553093 488.770508 317.265332 488.737305 L 317.265332 487.442383 L 329.99873 487.442383 L 329.99873 488.737305 C 329.644563 488.75944 329.246126 488.806478 328.803418 488.878418 C 328.360709 488.950358 327.962272 489.041667 327.608105 489.152344 C 327.187532 489.296224 326.905306 489.523112 326.761426 489.833008 C 326.617545 490.142904 326.545605 490.480469 326.545605 490.845703 L 326.545605 507.530273 C 326.545605 507.928711 326.617545 508.266276 326.761426 508.542969 C 326.905306 508.819662 327.187532 509.052083 327.608105 509.240234 C 327.87373 509.350911 328.258333 509.450521 328.761914 509.539062 C 329.265495 509.627604 329.677767 509.682943 329.99873 509.705078 Z M 353.287207 494.182617 L 352.008887 494.182617 C 351.665788 493.175456 351.115169 492.096354 350.357031 490.945312 C 349.598893 489.794271 348.89886 489.174479 348.256933 489.085938 C 347.902766 489.041667 347.465592 489.00293 346.94541 488.969727 C 346.425228 488.936524 345.976986 488.919922 345.600683 488.919922 L 344.82041 488.919922 L 344.82041 507.397461 C 344.82041 507.795898 344.89235 508.147298 345.03623 508.45166 C 345.180111 508.756022 345.462337 508.996745 345.88291 509.173828 C 346.137467 509.273437 346.533138 509.375814 347.069922 509.480957 C 347.606706 509.5861 348.063249 509.660807 348.439551 509.705078 L 348.439551 511 L 335.307715 511 L 335.307715 509.705078 C 335.628678 509.671875 336.079687 509.624837 336.660742 509.563965 C 337.241797 509.503092 337.637467 509.428385 337.847754 509.339844 C 338.279395 509.162761 338.567155 508.924805 338.711035 508.625977 C 338.854915 508.327148 338.926855 507.972982 338.926855 507.563477 L 338.926855 488.919922 L 338.146582 488.919922 C 337.77028 488.919922 337.322038 488.936524 336.801855 488.969727 C 336.281673 489.00293 335.844499 489.041667 335.490332 489.085938 C 334.848405 489.174479 334.148372 489.794271 333.390234 490.945312 C 332.632096 492.096354 332.081478 493.175456 331.738379 494.182617 L 330.460058 494.182617 L 330.460058 487.442383 L 353.287207 487.442383 Z M 382.283105 500.192383 C 382.991438 500.679362 383.566959 501.290853 384.009668 502.026855 C 384.452376 502.762858 384.67373 503.628906 384.67373 504.625 C 384.67373 505.820313 384.42194 506.830241 383.918359 507.654785 C 383.414778 508.47933 382.69261 509.129558 381.751855 509.605469 C 380.755762 510.114584 379.607487 510.474284 378.307031 510.68457 C 377.006576 510.894857 375.476465 511 373.716699 511 L 361.481348 511 L 361.481348 509.705078 C 361.824447 509.671875 362.256087 509.62207 362.776269 509.555664 C 363.296452 509.489258 363.661686 509.411784 363.871973 509.323242 C 364.281478 509.157227 364.560937 508.938639 364.710351 508.66748 C 364.859766 508.396321 364.934473 508.044922 364.934473 507.613281 L 364.934473 491.011719 C 364.934473 490.613281 364.8736 490.28125 364.751855 490.015625 C 364.63011 489.75 364.336816 489.517578 363.871973 489.318359 C 363.528874 489.174479 363.130436 489.055501 362.67666 488.961426 C 362.222884 488.86735 361.824447 488.792643 361.481348 488.737305 L 361.481348 487.442383 L 374.281152 487.442383 C 377.501855 487.442383 379.826074 487.885091 381.253808 488.770508 C 382.681543 489.655925 383.39541 490.961914 383.39541 492.688477 C 383.39541 493.485352 383.234928 494.185384 382.913965 494.788574 C 382.593001 495.391764 382.133691 495.914713 381.536035 496.357422 C 380.993717 496.766927 380.346256 497.121094 379.593652 497.419922 C 378.841048 497.71875 378.033105 497.967773 377.169824 498.166992 L 377.169824 498.482422 C 378.033105 498.570963 378.92959 498.761881 379.859277 499.055176 C 380.788964 499.34847 381.596907 499.727539 382.283105 500.192383 Z M 376.937402 493.103516 C 376.937402 491.797526 376.569401 490.779297 375.833398 490.048828 C 375.097395 489.318359 373.993392 488.953125 372.521387 488.953125 C 372.3111 488.953125 372.037174 488.961426 371.699609 488.978027 C 371.362044 488.994629 371.071517 489.008464 370.828027 489.019531 L 370.828027 497.751953 L 371.691308 497.751953 C 373.484277 497.751953 374.806869 497.334147 375.659082 496.498535 C 376.511295 495.662923 376.937402 494.53125 376.937402 493.103516 Z M 378.099512 504.40918 C 378.099512 502.771159 377.612533 501.514974 376.638574 500.640625 C 375.664616 499.766276 374.264551 499.329102 372.438379 499.329102 C 372.228092 499.329102 371.948633 499.337403 371.6 499.354004 C 371.251367 499.370605 370.994043 499.38444 370.828027 499.395508 L 370.828027 508.011719 C 370.927636 508.421224 371.237532 508.76709 371.757715 509.049316 C 372.277897 509.331543 372.908756 509.472656 373.650293 509.472656 C 374.96735 509.472656 376.038151 509.029948 376.862695 508.144531 C 377.68724 507.259114 378.099512 506.013997 378.099512 504.40918 Z M 408.493457 503.446289 L 408.028613 511 L 386.330371 511 L 386.330371 509.705078 C 386.717741 509.671875 387.171517 509.619303 387.691699 509.547363 C 388.211882 509.475423 388.554981 509.40625 388.720996 509.339844 C 389.119433 509.184896 389.396126 508.969076 389.551074 508.692383 C 389.706022 508.41569 389.783496 508.061524 389.783496 507.629883 L 389.783496 491.011719 C 389.783496 490.613281 389.722624 490.284017 389.600879 490.023926 C 389.479134 489.763835 389.18584 489.528646 388.720996 489.318359 C 388.377897 489.163412 387.965625 489.0389 387.48418 488.944824 C 387.002735 488.850749 386.618132 488.781576 386.330371 488.737305 L 386.330371 487.442383 L 399.262988 487.442383 L 399.262988 488.737305 C 398.908821 488.770508 398.491015 488.817545 398.00957 488.878418 C 397.528125 488.939291 397.110319 489.025065 396.756152 489.135742 C 396.324511 489.279622 396.036751 489.503743 395.892871 489.808105 C 395.748991 490.112467 395.677051 490.458333 395.677051 490.845703 L 395.677051 506.334961 C 395.677051 507.06543 395.726856 507.64095 395.826465 508.061523 C 395.926074 508.482096 396.119759 508.791992 396.407519 508.991211 C 396.69528 509.201498 397.096484 509.337077 397.611133 509.397949 C 398.125781 509.458822 398.836881 509.489258 399.744433 509.489258 C 400.62985 509.489258 401.490364 509.436686 402.325976 509.331543 C 403.161588 509.2264 403.762011 508.996745 404.127246 508.642578 C 404.691699 508.078125 405.269987 507.284017 405.862109 506.260254 C 406.454232 505.236491 406.927376 504.298502 407.281543 503.446289 Z M 430.503613 490.06543 C 431.665722 491.12793 432.587109 492.411784 433.267773 493.916992 C 433.948437 495.422201 434.288769 497.137696 434.288769 499.063477 C 434.288769 500.778972 434.001009 502.411459 433.425488 503.960938 C 432.849967 505.510417 432.019889 506.844075 430.935254 507.961914 C 429.79528 509.124023 428.456087 510.028809 426.917676 510.67627 C 425.379264 511.323731 423.547558 511.647461 421.422558 511.647461 C 419.707063 511.647461 418.085644 511.365234 416.558301 510.800781 C 415.030957 510.236328 413.68623 509.417318 412.524121 508.34375 C 411.373079 507.292318 410.459993 506.013998 409.784863 504.508789 C 409.109733 503.003581 408.772168 501.326823 408.772168 499.478516 C 408.772168 497.552735 409.101432 495.806804 409.759961 494.240723 C 410.41849 492.674642 411.323275 491.332683 412.474316 490.214844 C 413.61429 489.119141 414.967317 488.275228 416.533398 487.683105 C 418.099479 487.090983 419.767936 486.794922 421.538769 486.794922 C 423.298535 486.794922 424.950391 487.082682 426.494336 487.658203 C 428.038281 488.233724 429.374707 489.036133 430.503613 490.06543 Z M 426.237012 506.916016 C 426.735059 505.908854 427.094759 504.76888 427.316113 503.496094 C 427.537467 502.223307 427.648144 500.784505 427.648144 499.179688 C 427.648144 497.818359 427.551302 496.493001 427.357617 495.203613 C 427.163932 493.914225 426.834668 492.76595 426.369824 491.758789 C 425.893913 490.751628 425.263053 489.943685 424.477246 489.334961 C 423.691439 488.726237 422.711946 488.421875 421.538769 488.421875 C 419.535514 488.421875 418.013705 489.370931 416.97334 491.269043 C 415.932975 493.167155 415.412793 495.848307 415.412793 499.3125 C 415.412793 500.784505 415.526237 502.173503 415.753125 503.479492 C 415.980013 504.785482 416.336947 505.925456 416.823926 506.899414 C 417.321973 507.88444 417.952832 508.650879 418.716504 509.19873 C 419.480176 509.746582 420.420931 510.020508 421.538769 510.020508 C 422.634472 510.020508 423.575228 509.743815 424.361035 509.19043 C 425.146842 508.637045 425.772168 507.878907 426.237012 506.916016 Z M 457.477637 490.06543 C 458.639746 491.12793 459.561133 492.411784 460.241797 493.916992 C 460.922461 495.422201 461.262793 497.137696 461.262793 499.063477 C 461.262793 500.778972 460.975033 502.411459 460.399512 503.960938 C 459.823991 505.510417 458.993912 506.844075 457.909277 507.961914 C 456.769303 509.124023 455.43011 510.028809 453.891699 510.67627 C 452.353288 511.323731 450.521582 511.647461 448.396582 511.647461 C 446.681087 511.647461 445.059668 511.365234 443.532324 510.800781 C 442.00498 510.236328 440.660253 509.417318 439.498144 508.34375 C 438.347103 507.292318 437.434017 506.013998 436.758887 504.508789 C 436.083756 503.003581 435.746191 501.326823 435.746191 499.478516 C 435.746191 497.552735 436.075455 495.806804 436.733984 494.240723 C 437.392513 492.674642 438.297298 491.332683 439.44834 490.214844 C 440.588314 489.119141 441.941341 488.275228 443.507422 487.683105 C 445.073503 487.090983 446.74196 486.794922 448.512793 486.794922 C 450.272558 486.794922 451.924414 487.082682 453.468359 487.658203 C 455.012304 488.233724 456.34873 489.036133 457.477637 490.06543 Z M 453.211035 506.916016 C 453.709082 505.908854 454.068782 504.76888 454.290137 503.496094 C 454.511491 502.223307 454.622168 500.784505 454.622168 499.179688 C 454.622168 497.818359 454.525326 496.493001 454.331641 495.203613 C 454.137956 493.914225 453.808691 492.76595 453.343848 491.758789 C 452.867936 490.751628 452.237076 489.943685 451.451269 489.334961 C 450.665462 488.726237 449.68597 488.421875 448.512793 488.421875 C 446.509538 488.421875 444.987728 489.370931 443.947363 491.269043 C 442.906998 493.167155 442.386816 495.848307 442.386816 499.3125 C 442.386816 500.784505 442.50026 502.173503 442.727148 503.479492 C 442.954036 504.785482 443.31097 505.925456 443.797949 506.899414 C 444.295996 507.88444 444.926855 508.650879 445.690527 509.19873 C 446.454199 509.746582 447.394954 510.020508 448.512793 510.020508 C 449.608496 510.020508 450.549251 509.743815 451.335058 509.19043 C 452.120865 508.637045 452.746191 507.878907 453.211035 506.916016 Z M 495.060059 511 L 482.293457 511 L 482.293457 509.705078 C 482.669759 509.671875 483.131836 509.616536 483.679687 509.539062 C 484.227539 509.461589 484.601074 509.378581 484.800293 509.290039 C 485.209798 509.124024 485.503093 508.897136 485.680176 508.609375 C 485.857259 508.321614 485.945801 507.95638 485.945801 507.513672 L 485.945801 489.916016 L 477.844238 510.618164 L 475.752441 510.618164 C 475.652832 510.252929 475.406575 509.527994 475.013672 508.443359 C 474.620768 507.358724 474.302571 506.489909 474.059082 505.836914 L 468.099121 489.650391 L 468.099121 503.977539 C 468.099121 505.349935 468.19043 506.393067 468.373047 507.106934 C 468.555664 507.820801 468.851725 508.34375 469.26123 508.675781 C 469.537923 508.908203 470.033203 509.129557 470.74707 509.339844 C 471.460937 509.55013 471.961751 509.671875 472.249512 509.705078 L 472.249512 511 L 462.122558 511 L 462.122558 509.705078 C 462.399251 509.671875 462.850261 509.597168 463.475586 509.480957 C 464.100911 509.364746 464.612793 509.162761 465.01123 508.875 C 465.453939 508.565104 465.752767 508.042155 465.907715 507.306152 C 466.062663 506.570149 466.140137 505.521484 466.140137 504.160156 L 466.140137 492.489258 C 466.140137 491.780925 466.051595 491.191569 465.874512 490.721191 C 465.697429 490.250814 465.431804 489.877279 465.077637 489.600586 C 464.634928 489.257487 464.181152 489.036133 463.716308 488.936523 C 463.251465 488.836914 462.781087 488.770508 462.305176 488.737305 L 462.305176 487.442383 L 473.145996 487.442383 L 478.956543 502.998047 L 483.854004 490.364258 C 484.020019 489.899414 484.180501 489.346029 484.335449 488.704102 C 484.490397 488.062175 484.573405 487.641602 484.584473 487.442383 L 495.026855 487.442383 L 495.026855 488.737305 C 494.672688 488.75944 494.30192 488.803711 493.914551 488.870117 C 493.527181 488.936524 493.156413 489.025065 492.802246 489.135742 C 492.370605 489.279622 492.085612 489.50651 491.947266 489.816406 C 491.808919 490.126302 491.739746 490.469401 491.739746 490.845703 L 491.739746 507.530273 C 491.739746 507.928711 491.808919 508.263509 491.947266 508.534668 C 492.085612 508.805827 492.370605 509.041015 492.802246 509.240234 C 493.0236 509.339843 493.386067 509.433919 493.889648 509.522461 C 494.393229 509.611002 494.783366 509.671875 495.060059 509.705078 Z " style="stroke: none; stroke-linecap: butt; stroke-width: 1; fill: rgb(79%,43%,29%); fill-rule: evenodd;"/>
				<path d="M 336.112 553.36 L 342.664 546.928 C 343.192 546.416 343.612 545.9 343.924 545.38 C 344.236 544.86 344.392 544.264 344.392 543.592 C 344.392 542.792 344.132 542.156 343.612 541.684 C 343.092 541.212 342.448 540.976 341.68 540.976 C 340.864 540.976 340.208 541.252 339.712 541.804 C 339.216 542.356 338.912 543.048 338.8 543.88 L 335.992 543.448 C 336.072 542.744 336.272 542.096 336.592 541.504 C 336.912 540.912 337.32 540.4 337.816 539.968 C 338.312 539.536 338.892 539.196 339.556 538.948 C 340.22 538.7 340.944 538.576 341.728 538.576 C 342.464 538.576 343.172 538.68 343.852 538.888 C 344.532 539.096 345.136 539.412 345.664 539.836 C 346.192 540.26 346.612 540.78 346.924 541.396 C 347.236 542.012 347.392 542.728 347.392 543.544 C 347.392 544.088 347.32 544.596 347.176 545.068 C 347.032 545.54 346.836 545.984 346.588 546.4 C 346.34 546.816 346.052 547.212 345.724 547.588 C 345.396 547.964 345.04 548.328 344.656 548.68 L 339.76 553.36 L 347.416 553.36 L 347.416 556 L 336.112 556 Z M 359.716 541.6 L 352.78 541.6 L 352.612 545.272 C 352.884 545.192 353.208 545.136 353.584 545.104 C 353.96 545.072 354.3 545.056 354.604 545.056 C 355.436 545.056 356.208 545.176 356.92 545.416 C 357.632 545.656 358.252 546.004 358.78 546.46 C 359.308 546.916 359.72 547.476 360.016 548.14 C 360.312 548.804 360.46 549.568 360.46 550.432 C 360.46 551.376 360.296 552.22 359.968 552.964 C 359.64 553.708 359.196 554.336 358.636 554.848 C 358.076 555.36 357.42 555.752 356.668 556.024 C 355.916 556.296 355.116 556.432 354.268 556.432 C 352.844 556.432 351.644 556.1 350.668 555.436 C 349.692 554.772 348.98 553.864 348.532 552.712 L 351.148 551.752 C 351.388 552.424 351.788 552.964 352.348 553.372 C 352.908 553.78 353.572 553.984 354.34 553.984 C 354.772 553.984 355.18 553.912 355.564 553.768 C 355.948 553.624 356.284 553.416 356.572 553.144 C 356.86 552.872 357.088 552.532 357.256 552.124 C 357.424 551.716 357.508 551.256 357.508 550.744 C 357.508 550.088 357.396 549.544 357.172 549.112 C 356.948 548.68 356.656 548.332 356.296 548.068 C 355.936 547.804 355.532 547.62 355.084 547.516 C 354.636 547.412 354.18 547.36 353.716 547.36 C 353.396 547.36 353.056 547.384 352.696 547.432 C 352.336 547.48 351.984 547.548 351.64 547.636 C 351.296 547.724 350.96 547.824 350.632 547.936 C 350.304 548.048 350.012 548.168 349.756 548.296 L 350.044 539.008 L 359.716 539.008 Z M 374.056 547.504 C 374.056 548.88 373.924 550.12 373.66 551.224 C 373.396 552.328 373.012 553.264 372.508 554.032 C 372.004 554.8 371.38 555.392 370.636 555.808 C 369.892 556.224 369.04 556.432 368.08 556.432 C 367.12 556.432 366.264 556.224 365.512 555.808 C 364.76 555.392 364.128 554.8 363.616 554.032 C 363.104 553.264 362.716 552.328 362.452 551.224 C 362.188 550.12 362.056 548.88 362.056 547.504 C 362.056 546.128 362.188 544.888 362.452 543.784 C 362.716 542.68 363.104 541.744 363.616 540.976 C 364.128 540.208 364.76 539.616 365.512 539.2 C 366.264 538.784 367.12 538.576 368.08 538.576 C 369.04 538.576 369.892 538.784 370.636 539.2 C 371.38 539.616 372.004 540.208 372.508 540.976 C 373.012 541.744 373.396 542.68 373.66 543.784 C 373.924 544.888 374.056 546.128 374.056 547.504 Z M 371.104 547.504 C 371.104 546.912 371.068 546.24 370.996 545.488 C 370.924 544.736 370.78 544.024 370.564 543.352 C 370.348 542.68 370.04 542.116 369.64 541.66 C 369.24 541.204 368.72 540.976 368.08 540.976 C 367.424 540.976 366.896 541.204 366.496 541.66 C 366.096 542.116 365.788 542.68 365.572 543.352 C 365.356 544.024 365.208 544.736 365.128 545.488 C 365.048 546.24 365.008 546.912 365.008 547.504 C 365.008 548.096 365.048 548.768 365.128 549.52 C 365.208 550.272 365.356 550.976 365.572 551.632 C 365.788 552.288 366.096 552.844 366.496 553.3 C 366.896 553.756 367.424 553.984 368.08 553.984 C 368.72 553.984 369.24 553.756 369.64 553.3 C 370.04 552.844 370.348 552.288 370.564 551.632 C 370.78 550.976 370.924 550.272 370.996 549.52 C 371.068 548.768 371.104 548.096 371.104 547.504 Z M 391.816 544.48 L 391.816 554.968 C 391.816 556.008 391.688 556.948 391.432 557.788 C 391.176 558.628 390.78 559.34 390.244 559.924 C 389.708 560.508 389.032 560.96 388.216 561.28 C 387.4 561.6 386.432 561.76 385.312 561.76 C 384.848 561.76 384.356 561.72 383.836 561.64 C 383.316 561.56 382.804 561.44 382.3 561.28 C 381.796 561.12 381.312 560.92 380.848 560.68 C 380.384 560.44 379.968 560.168 379.6 559.864 L 381.256 557.632 C 381.816 558.16 382.448 558.564 383.152 558.844 C 383.856 559.124 384.568 559.264 385.288 559.264 C 385.976 559.264 386.556 559.164 387.028 558.964 C 387.5 558.764 387.876 558.488 388.156 558.136 C 388.436 557.784 388.636 557.368 388.756 556.888 C 388.876 556.408 388.936 555.88 388.936 555.304 L 388.936 554.464 L 388.888 554.464 C 388.472 555.024 387.94 555.452 387.292 555.748 C 386.644 556.044 385.92 556.192 385.12 556.192 C 384.256 556.192 383.472 556.032 382.768 555.712 C 382.064 555.392 381.468 554.96 380.98 554.416 C 380.492 553.872 380.112 553.236 379.84 552.508 C 379.568 551.78 379.432 551.008 379.432 550.192 C 379.432 549.36 379.564 548.576 379.828 547.84 C 380.092 547.104 380.468 546.464 380.956 545.92 C 381.444 545.376 382.036 544.944 382.732 544.624 C 383.428 544.304 384.208 544.144 385.072 544.144 C 385.888 544.144 386.648 544.312 387.352 544.648 C 388.056 544.984 388.616 545.504 389.032 546.208 L 389.08 546.208 L 389.08 544.48 Z M 385.672 546.496 C 385.144 546.496 384.676 546.592 384.268 546.784 C 383.86 546.976 383.516 547.236 383.236 547.564 C 382.956 547.892 382.74 548.28 382.588 548.728 C 382.436 549.176 382.36 549.656 382.36 550.168 C 382.36 550.632 382.436 551.08 382.588 551.512 C 382.74 551.944 382.956 552.332 383.236 552.676 C 383.516 553.02 383.86 553.296 384.268 553.504 C 384.676 553.712 385.136 553.816 385.648 553.816 C 386.176 553.816 386.652 553.716 387.076 553.516 C 387.5 553.316 387.86 553.048 388.156 552.712 C 388.452 552.376 388.68 551.988 388.84 551.548 C 389 551.108 389.08 550.648 389.08 550.168 C 389.08 549.672 389 549.2 388.84 548.752 C 388.68 548.304 388.452 547.912 388.156 547.576 C 387.86 547.24 387.504 546.976 387.088 546.784 C 386.672 546.592 386.2 546.496 385.672 546.496 Z " style="stroke: none; stroke-linecap: butt; stroke-width: 1; fill: rgb(29%,2%,12%); fill-rule: evenodd;"/>
				<path d="M 829.792 326.592 C 829.792 325.572 829.963 324.651 830.305 323.829 C 830.647 323.007 831.121 322.308 831.727 321.732 C 832.333 321.156 833.053 320.712 833.887 320.4 C 834.721 320.088 835.63 319.932 836.614 319.932 C 837.61 319.932 838.528 320.088 839.368 320.4 C 840.208 320.712 840.934 321.156 841.546 321.732 C 842.158 322.308 842.635 323.007 842.977 323.829 C 843.319 324.651 843.49 325.572 843.49 326.592 C 843.49 327.588 843.319 328.497 842.977 329.319 C 842.635 330.141 842.158 330.849 841.546 331.443 C 840.934 332.037 840.208 332.499 839.368 332.829 C 838.528 333.159 837.61 333.324 836.614 333.324 C 835.63 333.324 834.721 333.159 833.887 332.829 C 833.053 332.499 832.333 332.037 831.727 331.443 C 831.121 330.849 830.647 330.141 830.305 329.319 C 829.963 328.497 829.792 327.588 829.792 326.592 Z M 832.258 326.592 C 832.258 327.276 832.363 327.903 832.573 328.473 C 832.783 329.043 833.083 329.538 833.473 329.958 C 833.863 330.378 834.325 330.705 834.859 330.939 C 835.393 331.173 835.984 331.29 836.632 331.29 C 837.28 331.29 837.874 331.173 838.414 330.939 C 838.954 330.705 839.419 330.378 839.809 329.958 C 840.199 329.538 840.499 329.043 840.709 328.473 C 840.919 327.903 841.024 327.276 841.024 326.592 C 841.024 325.932 840.919 325.32 840.709 324.756 C 840.499 324.192 840.202 323.7 839.818 323.28 C 839.434 322.86 838.972 322.53 838.432 322.29 C 837.892 322.05 837.292 321.93 836.632 321.93 C 835.972 321.93 835.375 322.05 834.841 322.29 C 834.307 322.53 833.848 322.86 833.464 323.28 C 833.08 323.7 832.783 324.192 832.573 324.756 C 832.363 325.32 832.258 325.932 832.258 326.592 Z M 845.686 320.256 L 850.114 320.256 C 850.714 320.256 851.296 320.319 851.86 320.445 C 852.424 320.571 852.925 320.778 853.363 321.066 C 853.801 321.354 854.152 321.732 854.416 322.2 C 854.68 322.668 854.812 323.238 854.812 323.91 C 854.812 324.834 854.551 325.587 854.029 326.169 C 853.507 326.751 852.796 327.144 851.896 327.348 L 855.298 333 L 852.562 333 L 849.61 327.6 L 847.954 327.6 L 847.954 333 L 845.686 333 Z M 849.808 325.746 C 850.132 325.746 850.456 325.722 850.78 325.674 C 851.104 325.626 851.395 325.536 851.653 325.404 C 851.911 325.272 852.124 325.083 852.292 324.837 C 852.46 324.591 852.544 324.276 852.544 323.892 C 852.544 323.544 852.466 323.259 852.31 323.037 C 852.154 322.815 851.956 322.638 851.716 322.506 C 851.476 322.374 851.203 322.284 850.897 322.236 C 850.591 322.188 850.294 322.164 850.006 322.164 L 847.954 322.164 L 847.954 325.746 Z M 857.008 320.256 L 859.276 320.256 L 859.276 333 L 857.008 333 Z M 873.244 332.334 C 872.596 332.646 871.885 332.889 871.111 333.063 C 870.337 333.237 869.446 333.324 868.438 333.324 C 867.406 333.324 866.464 333.159 865.612 332.829 C 864.76 332.499 864.028 332.037 863.416 331.443 C 862.804 330.849 862.327 330.141 861.985 329.319 C 861.643 328.497 861.472 327.588 861.472 326.592 C 861.472 325.572 861.649 324.651 862.003 323.829 C 862.357 323.007 862.843 322.308 863.461 321.732 C 864.079 321.156 864.808 320.712 865.648 320.4 C 866.488 320.088 867.4 319.932 868.384 319.932 C 869.404 319.932 870.337 320.079 871.183 320.373 C 872.029 320.667 872.71 321.054 873.226 321.534 L 871.66 323.226 C 871.336 322.866 870.883 322.56 870.301 322.308 C 869.719 322.056 869.086 321.93 868.402 321.93 C 867.73 321.93 867.121 322.05 866.575 322.29 C 866.029 322.53 865.564 322.86 865.18 323.28 C 864.796 323.7 864.499 324.192 864.289 324.756 C 864.079 325.32 863.974 325.932 863.974 326.592 C 863.974 327.276 864.079 327.903 864.289 328.473 C 864.499 329.043 864.799 329.538 865.189 329.958 C 865.579 330.378 866.053 330.705 866.611 330.939 C 867.169 331.173 867.802 331.29 868.51 331.29 C 869.482 331.29 870.328 331.14 871.048 330.84 L 871.048 327.6 L 868.366 327.6 L 868.366 325.728 L 873.244 325.728 Z M 875.998 320.256 L 878.266 320.256 L 878.266 333 L 875.998 333 Z M 881.074 320.256 L 884.08 320.256 L 890.002 329.796 L 890.038 329.796 L 890.038 320.256 L 892.306 320.256 L 892.306 333 L 889.426 333 L 883.378 323.154 L 883.342 323.154 L 883.342 333 L 881.074 333 Z " style="stroke: none; stroke-linecap: butt; stroke-width: 1; fill: rgb(29%,2%,12%); fill-rule: evenodd;"/>
				<path d="M 830.404 405.256 L 834.832 405.256 C 835.432 405.256 836.014 405.319 836.578 405.445 C 837.142 405.571 837.643 405.778 838.081 406.066 C 838.519 406.354 838.87 406.732 839.134 407.2 C 839.398 407.668 839.53 408.238 839.53 408.91 C 839.53 409.834 839.269 410.587 838.747 411.169 C 838.225 411.751 837.514 412.144 836.614 412.348 L 840.016 418 L 837.28 418 L 834.328 412.6 L 832.672 412.6 L 832.672 418 L 830.404 418 Z M 834.526 410.746 C 834.85 410.746 835.174 410.722 835.498 410.674 C 835.822 410.626 836.113 410.536 836.371 410.404 C 836.629 410.272 836.842 410.083 837.01 409.837 C 837.178 409.591 837.262 409.276 837.262 408.892 C 837.262 408.544 837.184 408.259 837.028 408.037 C 836.872 407.815 836.674 407.638 836.434 407.506 C 836.194 407.374 835.921 407.284 835.615 407.236 C 835.309 407.188 835.012 407.164 834.724 407.164 L 832.672 407.164 L 832.672 410.746 Z M 841.114 411.592 C 841.114 410.572 841.285 409.651 841.627 408.829 C 841.969 408.007 842.443 407.308 843.049 406.732 C 843.655 406.156 844.375 405.712 845.209 405.4 C 846.043 405.088 846.952 404.932 847.936 404.932 C 848.932 404.932 849.85 405.088 850.69 405.4 C 851.53 405.712 852.256 406.156 852.868 406.732 C 853.48 407.308 853.957 408.007 854.299 408.829 C 854.641 409.651 854.812 410.572 854.812 411.592 C 854.812 412.588 854.641 413.497 854.299 414.319 C 853.957 415.141 853.48 415.849 852.868 416.443 C 852.256 417.037 851.53 417.499 850.69 417.829 C 849.85 418.159 848.932 418.324 847.936 418.324 C 846.952 418.324 846.043 418.159 845.209 417.829 C 844.375 417.499 843.655 417.037 843.049 416.443 C 842.443 415.849 841.969 415.141 841.627 414.319 C 841.285 413.497 841.114 412.588 841.114 411.592 Z M 843.58 411.592 C 843.58 412.276 843.685 412.903 843.895 413.473 C 844.105 414.043 844.405 414.538 844.795 414.958 C 845.185 415.378 845.647 415.705 846.181 415.939 C 846.715 416.173 847.306 416.29 847.954 416.29 C 848.602 416.29 849.196 416.173 849.736 415.939 C 850.276 415.705 850.741 415.378 851.131 414.958 C 851.521 414.538 851.821 414.043 852.031 413.473 C 852.241 412.903 852.346 412.276 852.346 411.592 C 852.346 410.932 852.241 410.32 852.031 409.756 C 851.821 409.192 851.524 408.7 851.14 408.28 C 850.756 407.86 850.294 407.53 849.754 407.29 C 849.214 407.05 848.614 406.93 847.954 406.93 C 847.294 406.93 846.697 407.05 846.163 407.29 C 845.629 407.53 845.17 407.86 844.786 408.28 C 844.402 408.7 844.105 409.192 843.895 409.756 C 843.685 410.32 843.58 410.932 843.58 411.592 Z M 861.004 405.256 L 862.966 405.256 L 868.456 418 L 865.864 418 L 864.676 415.084 L 859.15 415.084 L 857.998 418 L 855.46 418 Z M 863.884 413.14 L 861.922 407.956 L 859.924 413.14 Z M 876.214 407.92 C 875.974 407.608 875.635 407.347 875.197 407.137 C 874.759 406.927 874.318 406.822 873.874 406.822 C 873.61 406.822 873.346 406.855 873.082 406.921 C 872.818 406.987 872.578 407.089 872.362 407.227 C 872.146 407.365 871.969 407.545 871.831 407.767 C 871.693 407.989 871.624 408.256 871.624 408.568 C 871.624 408.856 871.684 409.102 871.804 409.306 C 871.924 409.51 872.089 409.684 872.299 409.828 C 872.509 409.972 872.764 410.098 873.064 410.206 C 873.364 410.314 873.694 410.422 874.054 410.53 C 874.462 410.662 874.885 410.812 875.323 410.98 C 875.761 411.148 876.163 411.37 876.529 411.646 C 876.895 411.922 877.195 412.27 877.429 412.69 C 877.663 413.11 877.78 413.632 877.78 414.256 C 877.78 414.94 877.654 415.537 877.402 416.047 C 877.15 416.557 876.814 416.98 876.394 417.316 C 875.974 417.652 875.482 417.904 874.918 418.072 C 874.354 418.24 873.76 418.324 873.136 418.324 C 872.308 418.324 871.498 418.171 870.706 417.865 C 869.914 417.559 869.266 417.106 868.762 416.506 L 870.382 414.994 C 870.694 415.426 871.111 415.768 871.633 416.02 C 872.155 416.272 872.668 416.398 873.172 416.398 C 873.436 416.398 873.706 416.365 873.982 416.299 C 874.258 416.233 874.507 416.122 874.729 415.966 C 874.951 415.81 875.131 415.615 875.269 415.381 C 875.407 415.147 875.476 414.856 875.476 414.508 C 875.476 414.172 875.398 413.893 875.242 413.671 C 875.086 413.449 874.876 413.257 874.612 413.095 C 874.348 412.933 874.036 412.792 873.676 412.672 C 873.316 412.552 872.938 412.426 872.542 412.294 C 872.158 412.174 871.774 412.03 871.39 411.862 C 871.006 411.694 870.661 411.472 870.355 411.196 C 870.049 410.92 869.8 410.581 869.608 410.179 C 869.416 409.777 869.32 409.276 869.32 408.676 C 869.32 408.028 869.455 407.47 869.725 407.002 C 869.995 406.534 870.349 406.147 870.787 405.841 C 871.225 405.535 871.723 405.307 872.281 405.157 C 872.839 405.007 873.406 404.932 873.982 404.932 C 874.63 404.932 875.287 405.046 875.953 405.274 C 876.619 405.502 877.198 405.844 877.69 406.3 Z M 882.622 407.236 L 878.716 407.236 L 878.716 405.256 L 888.796 405.256 L 888.796 407.236 L 884.89 407.236 L 884.89 418 L 882.622 418 Z " style="stroke: none; stroke-linecap: butt; stroke-width: 1; fill: rgb(29%,2%,12%); fill-rule: evenodd;"/>
				<path d="M 830.404 475.256 L 833.41 475.256 L 839.332 484.796 L 839.368 484.796 L 839.368 475.256 L 841.636 475.256 L 841.636 488 L 838.756 488 L 832.708 478.154 L 832.672 478.154 L 832.672 488 L 830.404 488 Z M 843.832 481.592 C 843.832 480.572 844.003 479.651 844.345 478.829 C 844.687 478.007 845.161 477.308 845.767 476.732 C 846.373 476.156 847.093 475.712 847.927 475.4 C 848.761 475.088 849.67 474.932 850.654 474.932 C 851.65 474.932 852.568 475.088 853.408 475.4 C 854.248 475.712 854.974 476.156 855.586 476.732 C 856.198 477.308 856.675 478.007 857.017 478.829 C 857.359 479.651 857.53 480.572 857.53 481.592 C 857.53 482.588 857.359 483.497 857.017 484.319 C 856.675 485.141 856.198 485.849 855.586 486.443 C 854.974 487.037 854.248 487.499 853.408 487.829 C 852.568 488.159 851.65 488.324 850.654 488.324 C 849.67 488.324 848.761 488.159 847.927 487.829 C 847.093 487.499 846.373 487.037 845.767 486.443 C 845.161 485.849 844.687 485.141 844.345 484.319 C 844.003 483.497 843.832 482.588 843.832 481.592 Z M 846.298 481.592 C 846.298 482.276 846.403 482.903 846.613 483.473 C 846.823 484.043 847.123 484.538 847.513 484.958 C 847.903 485.378 848.365 485.705 848.899 485.939 C 849.433 486.173 850.024 486.29 850.672 486.29 C 851.32 486.29 851.914 486.173 852.454 485.939 C 852.994 485.705 853.459 485.378 853.849 484.958 C 854.239 484.538 854.539 484.043 854.749 483.473 C 854.959 482.903 855.064 482.276 855.064 481.592 C 855.064 480.932 854.959 480.32 854.749 479.756 C 854.539 479.192 854.242 478.7 853.858 478.28 C 853.474 477.86 853.012 477.53 852.472 477.29 C 851.932 477.05 851.332 476.93 850.672 476.93 C 850.012 476.93 849.415 477.05 848.881 477.29 C 848.347 477.53 847.888 477.86 847.504 478.28 C 847.12 478.7 846.823 479.192 846.613 479.756 C 846.403 480.32 846.298 480.932 846.298 481.592 Z M 862.3 477.236 L 858.394 477.236 L 858.394 475.256 L 868.474 475.256 L 868.474 477.236 L 864.568 477.236 L 864.568 488 L 862.3 488 Z M 869.95 475.256 L 878.392 475.256 L 878.392 477.236 L 872.218 477.236 L 872.218 480.476 L 878.068 480.476 L 878.068 482.384 L 872.218 482.384 L 872.218 485.984 L 878.716 485.984 L 878.716 488 L 869.95 488 Z M 887.428 477.92 C 887.188 477.608 886.849 477.347 886.411 477.137 C 885.973 476.927 885.532 476.822 885.088 476.822 C 884.824 476.822 884.56 476.855 884.296 476.921 C 884.032 476.987 883.792 477.089 883.576 477.227 C 883.36 477.365 883.183 477.545 883.045 477.767 C 882.907 477.989 882.838 478.256 882.838 478.568 C 882.838 478.856 882.898 479.102 883.018 479.306 C 883.138 479.51 883.303 479.684 883.513 479.828 C 883.723 479.972 883.978 480.098 884.278 480.206 C 884.578 480.314 884.908 480.422 885.268 480.53 C 885.676 480.662 886.099 480.812 886.537 480.98 C 886.975 481.148 887.377 481.37 887.743 481.646 C 888.109 481.922 888.409 482.27 888.643 482.69 C 888.877 483.11 888.994 483.632 888.994 484.256 C 888.994 484.94 888.868 485.537 888.616 486.047 C 888.364 486.557 888.028 486.98 887.608 487.316 C 887.188 487.652 886.696 487.904 886.132 488.072 C 885.568 488.24 884.974 488.324 884.35 488.324 C 883.522 488.324 882.712 488.171 881.92 487.865 C 881.128 487.559 880.48 487.106 879.976 486.506 L 881.596 484.994 C 881.908 485.426 882.325 485.768 882.847 486.02 C 883.369 486.272 883.882 486.398 884.386 486.398 C 884.65 486.398 884.92 486.365 885.196 486.299 C 885.472 486.233 885.721 486.122 885.943 485.966 C 886.165 485.81 886.345 485.615 886.483 485.381 C 886.621 485.147 886.69 484.856 886.69 484.508 C 886.69 484.172 886.612 483.893 886.456 483.671 C 886.3 483.449 886.09 483.257 885.826 483.095 C 885.562 482.933 885.25 482.792 884.89 482.672 C 884.53 482.552 884.152 482.426 883.756 482.294 C 883.372 482.174 882.988 482.03 882.604 481.862 C 882.22 481.694 881.875 481.472 881.569 481.196 C 881.263 480.92 881.014 480.581 880.822 480.179 C 880.63 479.777 880.534 479.276 880.534 478.676 C 880.534 478.028 880.669 477.47 880.939 477.002 C 881.209 476.534 881.563 476.147 882.001 475.841 C 882.439 475.535 882.937 475.307 883.495 475.157 C 884.053 475.007 884.62 474.932 885.196 474.932 C 885.844 474.932 886.501 475.046 887.167 475.274 C 887.833 475.502 888.412 475.844 888.904 476.3 Z " style="stroke: none; stroke-linecap: butt; stroke-width: 1; fill: rgb(29%,2%,12%); fill-rule: evenodd;"/>
				<path d="M 335.27 708 L 333.83 708 L 333.83 693.84 L 342.37 693.84 L 342.37 695.12 L 335.27 695.12 L 335.27 700.04 L 341.87 700.04 L 341.87 701.3 L 335.27 701.3 Z M 348.31 708 L 346.87 708 L 346.87 693.84 L 351.03 693.84 C 351.723333 693.84 352.366667 693.906667 352.96 694.04 C 353.553333 694.173333 354.066667 694.39 354.5 694.69 C 354.933333 694.99 355.27 695.38 355.51 695.86 C 355.75 696.34 355.87 696.926667 355.87 697.62 C 355.87 698.14 355.776667 698.613333 355.59 699.04 C 355.403333 699.466667 355.15 699.836667 354.83 700.15 C 354.51 700.463333 354.13 700.713333 353.69 700.9 C 353.25 701.086667 352.77 701.206667 352.25 701.26 L 356.39 708 L 354.63 708 L 350.71 701.38 L 348.31 701.38 Z M 348.31 700.14 L 350.81 700.14 C 351.97 700.14 352.863333 699.93 353.49 699.51 C 354.116667 699.09 354.43 698.46 354.43 697.62 C 354.43 697.153333 354.343333 696.76 354.17 696.44 C 353.996667 696.12 353.756667 695.86 353.45 695.66 C 353.143333 695.46 352.77 695.313333 352.33 695.22 C 351.89 695.126667 351.403333 695.08 350.87 695.08 L 348.31 695.08 Z M 374.65 700.92 C 374.65 702 374.463333 702.993333 374.09 703.9 C 373.716667 704.806667 373.2 705.59 372.54 706.25 C 371.88 706.91 371.1 707.426667 370.2 707.8 C 369.3 708.173333 368.323333 708.36 367.27 708.36 C 366.216667 708.36 365.24 708.173333 364.34 707.8 C 363.44 707.426667 362.66 706.91 362 706.25 C 361.34 705.59 360.823333 704.806667 360.45 703.9 C 360.076667 702.993333 359.89 702 359.89 700.92 C 359.89 699.84 360.076667 698.846667 360.45 697.94 C 360.823333 697.033333 361.34 696.25 362 695.59 C 362.66 694.93 363.44 694.413333 364.34 694.04 C 365.24 693.666667 366.216667 693.48 367.27 693.48 C 368.323333 693.48 369.3 693.666667 370.2 694.04 C 371.1 694.413333 371.88 694.93 372.54 695.59 C 373.2 696.25 373.716667 697.033333 374.09 697.94 C 374.463333 698.846667 374.65 699.84 374.65 700.92 Z M 373.13 700.92 C 373.13 700.093333 372.996667 699.306667 372.73 698.56 C 372.463333 697.813333 372.076667 697.156667 371.57 696.59 C 371.063333 696.023333 370.446667 695.573333 369.72 695.24 C 368.993333 694.906667 368.176667 694.74 367.27 694.74 C 366.363333 694.74 365.546667 694.906667 364.82 695.24 C 364.093333 695.573333 363.476667 696.023333 362.97 696.59 C 362.463333 697.156667 362.076667 697.813333 361.81 698.56 C 361.543333 699.306667 361.41 700.093333 361.41 700.92 C 361.41 701.746667 361.543333 702.533333 361.81 703.28 C 362.076667 704.026667 362.463333 704.68 362.97 705.24 C 363.476667 705.8 364.093333 706.246667 364.82 706.58 C 365.546667 706.913333 366.363333 707.08 367.27 707.08 C 368.176667 707.08 368.993333 706.913333 369.72 706.58 C 370.446667 706.246667 371.063333 705.8 371.57 705.24 C 372.076667 704.68 372.463333 704.026667 372.73 703.28 C 372.996667 702.533333 373.13 701.746667 373.13 700.92 Z M 389.49 705.9 L 389.53 705.9 L 389.53 693.84 L 390.97 693.84 L 390.97 708 L 389.17 708 L 380.93 695.82 L 380.89 695.82 L 380.89 708 L 379.45 708 L 379.45 693.84 L 381.25 693.84 Z M 401.07 708 L 399.63 708 L 399.63 695.12 L 394.89 695.12 L 394.89 693.84 L 405.81 693.84 L 405.81 695.12 L 401.07 695.12 Z " style="stroke: none; stroke-linecap: butt; stroke-width: 1; fill: rgb(50%,47%,41%); fill-rule: evenodd;"/>
				<path d="M 987.84 693.84 L 992.06 693.84 C 992.593333 693.84 993.133333 693.896667 993.68 694.01 C 994.226667 694.123333 994.716667 694.316667 995.15 694.59 C 995.583333 694.863333 995.936667 695.233333 996.21 695.7 C 996.483333 696.166667 996.62 696.753333 996.62 697.46 C 996.62 698.206667 996.393333 698.856667 995.94 699.41 C 995.486667 699.963333 994.88 700.326667 994.12 700.5 L 994.12 700.54 C 995.04 700.646667 995.803333 701.003333 996.41 701.61 C 997.016667 702.216667 997.32 703.04 997.32 704.08 C 997.32 704.666667 997.196667 705.203333 996.95 705.69 C 996.703333 706.176667 996.353333 706.59 995.9 706.93 C 995.446667 707.27 994.893333 707.533333 994.24 707.72 C 993.586667 707.906667 992.853333 708 992.04 708 L 987.84 708 Z M 989.28 700.04 L 992.18 700.04 C 992.526667 700.04 992.876667 700 993.23 699.92 C 993.583333 699.84 993.906667 699.703333 994.2 699.51 C 994.493333 699.316667 994.73 699.06 994.91 698.74 C 995.09 698.42 995.18 698.026667 995.18 697.56 C 995.18 697.106667 995.09 696.723333 994.91 696.41 C 994.73 696.096667 994.486667 695.84 994.18 695.64 C 993.873333 695.44 993.513333 695.296667 993.1 695.21 C 992.686667 695.123333 992.246667 695.08 991.78 695.08 L 989.28 695.08 Z M 989.28 706.76 L 991.96 706.76 C 992.48 706.76 992.976667 706.71 993.45 706.61 C 993.923333 706.51 994.336667 706.35 994.69 706.13 C 995.043333 705.91 995.326667 705.623333 995.54 705.27 C 995.753333 704.916667 995.86 704.493333 995.86 704 C 995.86 703.066667 995.543333 702.37 994.91 701.91 C 994.276667 701.45 993.38 701.22 992.22 701.22 L 989.28 701.22 Z M 1002.26 708 L 1000.68 708 L 1006.8 693.84 L 1008.2 693.84 L 1014.28 708 L 1012.68 708 L 1011.12 704.28 L 1003.8 704.28 Z M 1004.34 702.96 L 1010.58 702.96 L 1007.46 695.44 Z M 1030.08 705.72 C 1029.84 706.08 1029.55 706.42 1029.21 706.74 C 1028.87 707.06 1028.476667 707.34 1028.03 707.58 C 1027.583333 707.82 1027.09 708.01 1026.55 708.15 C 1026.01 708.29 1025.42 708.36 1024.78 708.36 C 1023.713333 708.36 1022.726667 708.173333 1021.82 707.8 C 1020.913333 707.426667 1020.133333 706.91 1019.48 706.25 C 1018.826667 705.59 1018.316667 704.806667 1017.95 703.9 C 1017.583333 702.993333 1017.4 702 1017.4 700.92 C 1017.4 699.84 1017.586667 698.846667 1017.96 697.94 C 1018.333333 697.033333 1018.85 696.25 1019.51 695.59 C 1020.17 694.93 1020.95 694.413333 1021.85 694.04 C 1022.75 693.666667 1023.726667 693.48 1024.78 693.48 C 1025.3 693.48 1025.81 693.533333 1026.31 693.64 C 1026.81 693.746667 1027.28 693.896667 1027.72 694.09 C 1028.16 694.283333 1028.56 694.516667 1028.92 694.79 C 1029.28 695.063333 1029.58 695.373333 1029.82 695.72 L 1028.62 696.6 C 1028.473333 696.373333 1028.276667 696.146667 1028.03 695.92 C 1027.783333 695.693333 1027.493333 695.493333 1027.16 695.32 C 1026.826667 695.146667 1026.463333 695.006667 1026.07 694.9 C 1025.676667 694.793333 1025.253333 694.74 1024.8 694.74 C 1023.88 694.74 1023.056667 694.906667 1022.33 695.24 C 1021.603333 695.573333 1020.986667 696.023333 1020.48 696.59 C 1019.973333 697.156667 1019.586667 697.813333 1019.32 698.56 C 1019.053333 699.306667 1018.92 700.093333 1018.92 700.92 C 1018.92 701.746667 1019.056667 702.533333 1019.33 703.28 C 1019.603333 704.026667 1019.993333 704.683333 1020.5 705.25 C 1021.006667 705.816667 1021.623333 706.266667 1022.35 706.6 C 1023.076667 706.933333 1023.893333 707.1 1024.8 707.1 C 1025.613333 707.1 1026.386667 706.933333 1027.12 706.6 C 1027.853333 706.266667 1028.466667 705.733333 1028.96 705 Z M 1035.8 700.2 L 1035.82 700.2 L 1042.56 693.84 L 1044.62 693.84 L 1037.48 700.26 L 1045.02 708 L 1042.9 708 L 1035.82 700.46 L 1035.8 700.46 L 1035.8 708 L 1034.36 708 L 1034.36 693.84 L 1035.8 693.84 Z " style="stroke: none; stroke-linecap: butt; stroke-width: 1; fill: rgb(50%,47%,41%); fill-rule: evenodd;"/>
				<path d="M 820,308 L 1202,308 Z" style="stroke: rgb(30%,5%,15%); stroke-linecap: butt; stroke-width: 1.35;"/>
				<path d="M 820,342 L 1202,342 Z" style="stroke: rgb(30%,5%,15%); stroke-linecap: butt; stroke-width: 1.35;"/>
				<path d="M 820,393 L 1202,393 Z" style="stroke: rgb(30%,5%,15%); stroke-linecap: butt; stroke-width: 1.35;"/>
				<path d="M 820,427 L 1202,427 Z" style="stroke: rgb(30%,5%,15%); stroke-linecap: butt; stroke-width: 1.35;"/>
				<path d="M 820,464 L 1202,464 Z" style="stroke: rgb(30%,5%,15%); stroke-linecap: butt; stroke-width: 1.35;"/>
				<path d="M 820,498 L 1202,498 Z" style="stroke: rgb(30%,5%,15%); stroke-linecap: butt; stroke-width: 1.35;"/>
				<path d="M 820,563 L 1202,563 Z" style="stroke: rgb(30%,5%,15%); stroke-linecap: butt; stroke-width: 1.35;"/>
				<path d="M 820,308 L 820,563 Z" style="stroke: rgb(30%,5%,15%); stroke-linecap: butt; stroke-width: 1.35;"/>
				<path d="M 1202,308 L 1202,563 Z" style="stroke: rgb(30%,5%,15%); stroke-linecap: butt; stroke-width: 1.35;"/>
				<rect x="108" y="141" width="521" height="472" style="stroke: rgb(66%,60%,58%); stroke-linecap: butt; stroke-width: 0.65; fill: none; fill-rule: evenodd; stroke-dasharray: 2.0, 3.0;"/>
				<rect x="139" y="141" width="460" height="472" style="stroke: rgb(66%,60%,58%); stroke-linecap: butt; stroke-width: 0.7; fill: none; fill-rule: evenodd; stroke-dasharray: 2.0, 2.5;"/>
				<rect x="148" y="153" width="441" height="448" style="stroke: rgb(66%,60%,58%); stroke-linecap: butt; stroke-width: 0.7; fill: none; fill-rule: evenodd; stroke-dasharray: 2.0, 2.5;"/>
				<rect x="745" y="141" width="522" height="472" style="stroke: rgb(66%,60%,58%); stroke-linecap: butt; stroke-width: 0.65; fill: none; fill-rule: evenodd; stroke-dasharray: 2.0, 3.0;"/>
				<rect x="776" y="141" width="461" height="472" style="stroke: rgb(66%,60%,58%); stroke-linecap: butt; stroke-width: 0.7; fill: none; fill-rule: evenodd; stroke-dasharray: 2.0, 2.5;"/>
				<rect x="786" y="153" width="441" height="448" style="stroke: rgb(66%,60%,58%); stroke-linecap: butt; stroke-width: 0.7; fill: none; fill-rule: evenodd; stroke-dasharray: 2.0, 2.5;"/>
				<path d="M 123,644 L 615,644 Z" style="stroke: rgb(66%,60%,58%); stroke-linecap: butt; stroke-width: 0.65; stroke-dasharray: 2.0, 3.0;"/>
				<path d="M 760,644 L 1253,644 Z" style="stroke: rgb(66%,60%,58%); stroke-linecap: butt; stroke-width: 0.65; stroke-dasharray: 2.0, 3.0;"/>
				<path d="M 75,127 L 109,127 Z" style="stroke: rgb(16%,17%,16%); stroke-linecap: butt; stroke-width: 1.15;"/>
				<path d="M 628,127 L 663,127 Z" style="stroke: rgb(16%,17%,16%); stroke-linecap: butt; stroke-width: 1.15;"/>
				<path d="M 75,627 L 109,627 Z" style="stroke: rgb(16%,17%,16%); stroke-linecap: butt; stroke-width: 1.15;"/>
				<path d="M 628,627 L 663,627 Z" style="stroke: rgb(16%,17%,16%); stroke-linecap: butt; stroke-width: 1.15;"/>
				<path d="M 123,81 L 123,116 Z" style="stroke: rgb(16%,17%,16%); stroke-linecap: butt; stroke-width: 1.15;"/>
				<path d="M 123,640 L 123,675 Z" style="stroke: rgb(16%,17%,16%); stroke-linecap: butt; stroke-width: 1.15;"/>
				<path d="M 615,81 L 615,116 Z" style="stroke: rgb(16%,17%,16%); stroke-linecap: butt; stroke-width: 1.15;"/>
				<path d="M 615,640 L 615,675 Z" style="stroke: rgb(16%,17%,16%); stroke-linecap: butt; stroke-width: 1.15;"/>
				<path d="M 712,127 L 746,127 Z" style="stroke: rgb(16%,17%,16%); stroke-linecap: butt; stroke-width: 1.15;"/>
				<path d="M 1267,127 L 1301,127 Z" style="stroke: rgb(16%,17%,16%); stroke-linecap: butt; stroke-width: 1.15;"/>
				<path d="M 712,627 L 746,627 Z" style="stroke: rgb(16%,17%,16%); stroke-linecap: butt; stroke-width: 1.15;"/>
				<path d="M 1267,627 L 1301,627 Z" style="stroke: rgb(16%,17%,16%); stroke-linecap: butt; stroke-width: 1.15;"/>
				<path d="M 760,81 L 760,116 Z" style="stroke: rgb(16%,17%,16%); stroke-linecap: butt; stroke-width: 1.15;"/>
				<path d="M 760,640 L 760,675 Z" style="stroke: rgb(16%,17%,16%); stroke-linecap: butt; stroke-width: 1.15;"/>
				<path d="M 1253,81 L 1253,116 Z" style="stroke: rgb(16%,17%,16%); stroke-linecap: butt; stroke-width: 1.15;"/>
				<path d="M 1253,640 L 1253,675 Z" style="stroke: rgb(16%,17%,16%); stroke-linecap: butt; stroke-width: 1.15;"/>
			</g>
		</g>
	</g>
</svg>
