<svg xmlns="http://www.w3.org/2000/svg" xmlns:xlink="http://www.w3.org/1999/xlink"
  width="1080" height="1350" viewBox="0 0 1080 1350" role="img" aria-labelledby="svg-title svg-desc">
  <title id="svg-title">SUMMER FORM Instagram post</title>
  <desc id="svg-desc">Approved SUMMER FORM campaign adapted to a 1080 by 1350 Instagram post without changing the hero visual.</desc>
  <defs>
    <filter id="paper-grain" x="-10%" y="-10%" width="120%" height="120%">
      <feTurbulence type="fractalNoise" baseFrequency="0.72" numOctaves="3" seed="18" result="noise"/>
      <feColorMatrix in="noise" type="saturate" values="0" result="mono"/>
      <feComponentTransfer in="mono" result="soft-noise">
        <feFuncA type="table" tableValues="0 0.11"/>
      </feComponentTransfer>
      <feBlend in="SourceGraphic" in2="soft-noise" mode="multiply"/>
    </filter>
    <clipPath id="safe-frame-clip"><rect x="64" y="64" width="952" height="1222"/></clipPath>
  </defs>
  <style>
    .line { fill: none; stroke: #273D70; stroke-width: 3; vector-effect: non-scaling-stroke; }
    .hairline { fill: none; stroke: #273D70; stroke-width: 2.5; vector-effect: non-scaling-stroke; }
    .title { fill: #273D70; font-family: Arial, Helvetica, sans-serif; font-weight: 700; letter-spacing: -4px; }
    .meta { fill: #273D70; font-family: Arial, Helvetica, sans-serif; font-weight: 400; letter-spacing: -1px; }
  </style>
  <g id="background">
    <rect width="1080" height="1350" fill="#F3EFE6"/>
    <rect width="1080" height="1350" fill="#F3EFE6" filter="url(#paper-grain)" opacity="0.42"/>
  </g>

  <g id="geometry-frame" clip-path="url(#safe-frame-clip)">
    <rect id="outer-frame" x="64" y="64" width="952" height="1222" class="line"/>
    <path id="grid-lines" d="M64 224H1016 M64 600H1016 M652 600V1286 M64 1150H1016 M892 64V224" class="hairline"/>
    <g id="geometry-top-band">
      <rect x="680" y="64" width="212" height="160" fill="#3A5CA3"/>
      <rect x="892" y="64" width="124" height="160" fill="#EF7D66"/>
      <circle cx="224" cy="224" r="160" class="line"/>
      <circle cx="224" cy="224" r="80" class="hairline"/>
      <path d="M64 224H384 M224 64V384" class="hairline"/>
    </g>
    <g id="geometry-arcs">
      <path d="M64 924A226 226 0 0 0 290 1150A226 226 0 0 0 516 924" class="line"/>
      <path d="M1016 810A124 124 0 0 0 892 934" class="hairline"/>
      <circle cx="892" cy="1150" r="136" class="line"/>
    </g>
    <g id="geometry-bottom-accents">
      <rect x="64" y="1150" width="216" height="136" fill="#3A5CA3"/>
      <rect x="280" y="1150" width="188" height="136" fill="#EF7D66"/>
      <rect x="468" y="1150" width="88" height="136" fill="#3A5CA3"/>
      <path d="M556 1150H1016" class="hairline"/>
    </g>
  </g>
  <g id="campaign-copy">
    <text id="title-summer" x="92" y="410" class="title" font-size="148">SUMMER</text>
    <text id="title-form" x="486" y="558" class="title" font-size="176">FORM</text>
  </g>
  <g id="approved-art-window">
    <rect x="92" y="636" width="560" height="517.7" fill="#F3EFE6"/>
    <image id="approved-origami" href="assets/approved_origami_crop.png" x="92" y="636" width="560" height="517.7" preserveAspectRatio="xMidYMid meet"/>
    <rect x="92" y="636" width="560" height="517.7" class="line"/>
  </g>
  <g id="event-details">
    <rect x="682" y="684" width="334" height="242" fill="#F3EFE6" class="line"/>
    <text id="event-label" x="710" y="748" class="meta" font-size="34">Design Market</text>
    <text id="event-date" x="710" y="812" class="meta" font-size="43">08—10 AUG</text>
    <text id="event-location" x="710" y="872" class="meta" font-size="40">BROOKLYN</text>
  </g>
  <g id="approved-brand-mark">
    <rect x="806" y="1082" width="174" height="174" fill="#F3EFE6"/>
    <image id="brand-mark-image" href="assets/approved_brand_mark_crop.png" x="806" y="1082" width="174" height="174" preserveAspectRatio="xMidYMid meet"/>
  </g>
</svg>
